<svg width="201" height="100" viewBox="0 0 201 100" fill="none" xmlns="http://www.w3.org/2000/svg">
<path fill-rule="evenodd" clip-rule="evenodd" d="M150.83 20C167.399 20 180.83 33.4307 180.83 50C180.83 66.5678 167.399 80 150.83 80C134.262 80 120.83 66.5693 120.83 50C120.831 33.4307 134.262 20 150.83 20Z" fill="#F06292"/>
<path d="M169.648 32.84C168.289 27.5113 159.455 25.7601 151.095 28.7303C146.119 30.498 140.732 33.2729 136.858 36.8955C132.252 41.2035 131.519 44.9524 131.821 46.5187C132.888 52.0458 140.463 55.6594 143.576 58.341V58.3575C142.657 58.81 135.938 62.2101 134.366 65.6869C132.706 69.3546 134.63 71.9867 135.904 72.3414C139.849 73.4387 143.897 71.4651 146.074 68.2198C148.174 65.0872 148 61.0437 147.087 59.031C148.345 58.6988 149.814 58.55 151.678 58.7679C156.94 59.3827 157.973 62.6686 157.775 64.044C157.578 65.4194 156.473 66.1755 156.105 66.4039C155.735 66.6324 155.624 66.7121 155.654 66.8804C155.699 67.127 155.869 67.1179 156.184 67.0653C156.617 66.9917 158.947 65.947 159.048 63.4082C159.174 60.1854 156.086 56.5808 150.618 56.674C148.366 56.7131 146.95 56.9265 145.927 57.3083C145.852 57.2227 145.773 57.137 145.695 57.0513C142.315 53.4437 136.064 50.8929 136.329 46.0437C136.425 44.2805 137.038 39.6387 148.338 34.0079C157.594 29.3947 165.005 30.6649 166.285 33.4773C168.115 37.4967 162.325 44.9659 152.712 46.0437C149.049 46.4541 147.12 45.0351 146.641 44.506C146.136 43.9498 146.06 43.9242 145.873 44.0295C145.566 44.1993 145.76 44.6909 145.873 44.984C146.16 45.731 147.338 47.0553 149.345 47.7152C151.111 48.2954 155.412 48.6126 160.612 46.6014C166.436 44.3466 170.984 38.0785 169.648 32.84ZM144.868 59.993C145.304 61.6074 145.256 63.1135 144.807 64.4769C144.757 64.6287 144.702 64.7775 144.641 64.9263C144.581 65.0737 144.517 65.221 144.448 65.3653C144.1 66.0868 143.633 66.7617 143.062 67.3855C141.318 69.287 138.883 70.0055 137.84 69.3997C136.712 68.7459 137.277 66.0657 139.298 63.9282C141.471 61.6299 144.599 60.1523 144.599 60.1523L144.595 60.1433C144.685 60.0937 144.777 60.0441 144.868 59.993Z" fill="white"/>
<path d="M59.8801 25H20.83L24.2756 64.0502L40.355 68.6443L56.4345 64.0502L59.8801 25Z" fill="#E65100"/>
<path d="M40.355 28.4456V65.0839L53.2186 61.4085L56.09 28.4456H40.355Z" fill="#FF6D00"/>
<path d="M40.355 47.9707V43.3766H50.2324L49.4285 56.5847L40.355 59.5709V54.747L45.064 53.1391L45.4086 47.9707H40.355ZM50.577 38.7824L50.9216 34.1883H40.355V38.7824H50.577Z" fill="white"/>
<path d="M40.355 54.747V59.5709L31.2816 56.5847L30.8222 50.2678H35.4163L35.6461 53.1391L40.355 54.747ZM34.7272 38.7824H40.355V34.1883H29.9034L30.7074 47.9707H40.355V43.3766H35.0718L34.7272 38.7824Z" fill="#EEEEEE"/>
<path d="M80.8323 31.6157H41.7821L45.2277 70.6659L61.3072 75.26L77.3867 70.6659L80.8323 31.6157Z" fill="#0277BD"/>
<path d="M61.3072 35.0613V71.6996L74.1708 68.0243L77.0421 35.0613H61.3072Z" fill="#039BE5"/>
<path d="M71.7589 40.804H61.3072V45.3981H66.935L66.5905 49.9923H61.3072V54.5864H66.3607L66.0162 59.7548L61.3072 61.3628V66.1866L70.3806 63.2004L71.1846 49.9923L71.7589 40.804Z" fill="white"/>
<path d="M61.3072 40.804V45.3981H51.0852L50.7407 40.804H61.3072ZM56.0239 49.9923L56.2536 54.5864H61.3072V49.9923H56.0239ZM56.4833 56.8835H51.8892L52.2338 63.2004L61.3072 66.1866V61.3628L56.5982 59.7548L56.4833 56.8835Z" fill="#EEEEEE"/>
</svg>
