<svg width="337" height="23" viewBox="0 0 337 23" fill="none" xmlns="http://www.w3.org/2000/svg">
<path d="M46.1549 22.234C46.2569 22.2351 46.3067 22.2355 46.4087 22.2358C49.6032 22.2445 124.302 22.4324 175.954 21.1122C220.187 19.9817 265.492 19.7284 279.016 19.676C281.724 19.6655 284.408 19.5577 287.098 19.2509C296.111 18.2228 318.361 15.0805 334.753 7.72788C349.69 1.02779 280.457 0.824267 280.457 0.824267L56.3625 0.165489C49.7216 0.145967 43.1098 0.874657 36.6787 2.53041C23.3384 5.96498 0.854504 12.3083 0.0377236 16.2374C-1.0883 21.6542 43.2623 22.204 46.1549 22.234Z" fill="#C7D153" fill-opacity="0.4"/>
</svg>
