<svg width="400" height="443" viewBox="0 0 400 443" fill="none" xmlns="http://www.w3.org/2000/svg">
<rect x="51.0882" y="173.113" width="313" height="180" transform="rotate(14.0383 51.0882 173.113)" fill="#C16800" stroke="black" stroke-width="4"/>
<rect x="63.2142" y="194.7" width="279" height="144" transform="rotate(14.0383 63.2142 194.7)" fill="white" stroke="black" stroke-width="4"/>
<line x1="299.24" y1="402.794" x2="311.366" y2="424.38" stroke="black" stroke-width="4"/>
<line y1="-2" x2="24.7588" y2="-2" transform="matrix(0.842469 -0.538745 -0.538745 -0.842469 333.154 261.164)" stroke="black" stroke-width="4"/>
<line y1="-2" x2="24.7588" y2="-2" transform="matrix(0.842469 -0.538745 -0.538745 -0.842469 5.72766 346.282)" stroke="black" stroke-width="4"/>
<line x1="52.3466" y1="174.074" x2="64.4726" y2="195.66" stroke="black" stroke-width="4"/>
<line x1="295.538" y1="56.0908" x2="355.538" y2="249.091" stroke="black" stroke-width="2"/>
<line x1="288.034" y1="52.2799" x2="51.0345" y2="172.28" stroke="black" stroke-width="2"/>
<circle cx="288.583" cy="60.3877" r="7.5" fill="#FF0000" stroke="black" stroke-width="3"/>
<path d="M102.051 289.405C101.186 289.173 100.869 288.625 101.101 287.759L106.021 269.399C106.253 268.533 106.801 268.217 107.667 268.448L115.734 270.61C117.372 271.049 118.513 271.819 119.157 272.919C119.811 274.022 119.923 275.377 119.492 276.984L119.269 277.819C118.896 279.21 118.17 280.169 117.09 280.697C118.482 282.053 118.853 283.946 118.201 286.378L117.92 287.429C117.412 289.325 116.52 290.632 115.246 291.35C113.981 292.072 112.406 292.18 110.521 291.675L102.051 289.405ZM104.045 287.157L111.216 289.078C112.381 289.39 113.276 289.365 113.903 289.003C114.543 288.633 115.017 287.877 115.323 286.733L115.605 285.682C115.911 284.539 115.887 283.66 115.533 283.046C115.181 282.421 114.408 281.949 113.212 281.629L106.041 279.707L104.045 287.157ZM106.737 277.111L114.063 279.074C114.815 279.275 115.387 279.18 115.779 278.788C116.181 278.399 116.479 277.844 116.672 277.123L116.896 276.288C117.136 275.392 117.118 274.719 116.841 274.269C116.567 273.809 115.966 273.455 115.038 273.207L108.269 271.393L106.737 277.111ZM127.918 296.336C126.187 295.872 125.012 295.105 124.394 294.034C123.776 292.962 123.698 291.561 124.162 289.83C124.626 288.099 125.388 286.923 126.449 286.302C127.52 285.684 128.927 285.608 130.668 286.074L137.205 287.826C137.433 286.727 137.347 285.915 136.947 285.388C136.55 284.851 135.739 284.418 134.512 284.09L132.72 283.609C131.689 283.333 130.902 283.2 130.359 283.209C129.818 283.207 129.397 283.359 129.094 283.665C128.792 284.048 128.522 284.295 128.282 284.408C128.042 284.52 127.726 284.524 127.335 284.419C126.902 284.303 126.594 284.094 126.41 283.79C126.229 283.477 126.244 283.133 126.454 282.759C127.075 281.677 127.947 281 129.07 280.726C130.205 280.445 131.654 280.541 133.415 281.013L135.208 281.493C137.269 282.045 138.661 282.948 139.385 284.203C140.109 285.457 140.195 287.114 139.643 289.175L137.415 297.489C137.183 298.355 136.635 298.672 135.769 298.44C134.904 298.208 134.587 297.659 134.819 296.794L135.005 296.098C133.547 297.132 131.761 297.366 129.649 296.8L127.918 296.336ZM128.614 293.74L130.345 294.204C131.107 294.408 131.841 294.533 132.547 294.578C133.255 294.613 133.896 294.509 134.469 294.265C135.053 294.024 135.515 293.579 135.854 292.93L136.525 290.426L129.972 288.671C128.952 288.397 128.227 288.385 127.795 288.634C127.375 288.886 127.029 289.516 126.758 290.526C126.485 291.546 126.468 292.27 126.706 292.699C126.958 293.119 127.594 293.466 128.614 293.74ZM150.062 302.269C148.011 301.72 146.619 300.817 145.884 299.56C145.163 298.296 145.077 296.638 145.627 294.588L146.587 291.002C147.139 288.942 148.037 287.548 149.281 286.821C150.535 286.097 152.195 286.023 154.261 286.598L156.795 287.277C158.33 287.689 159.467 288.269 160.205 289.019C160.953 289.772 161.307 290.717 161.267 291.855C161.244 292.312 161.077 292.626 160.766 292.797C160.465 292.971 160.088 292.997 159.635 292.875C159.233 292.768 158.967 292.586 158.837 292.33C158.707 292.074 158.614 291.74 158.559 291.328C158.479 291.008 158.247 290.742 157.862 290.528C157.48 290.305 156.893 290.086 156.099 289.874L153.565 289.195C152.241 288.818 151.267 288.805 150.643 289.157C150.032 289.501 149.545 290.348 149.184 291.698L148.223 295.284C147.864 296.623 147.862 297.6 148.216 298.214C148.581 298.83 149.428 299.317 150.757 299.673L153.292 300.352C154.085 300.565 154.702 300.675 155.141 300.682C155.584 300.679 155.92 300.559 156.149 300.323C156.408 299.973 156.657 299.724 156.895 299.578C157.143 299.435 157.473 299.419 157.885 299.529C158.318 299.645 158.621 299.853 158.795 300.154C158.978 300.457 158.966 300.812 158.757 301.22C158.226 302.215 157.446 302.857 156.42 303.145C155.406 303.425 154.131 303.36 152.596 302.949L150.062 302.269ZM166.153 306.581C165.287 306.349 164.97 305.8 165.202 304.935L170.337 285.771C170.569 284.906 171.118 284.589 171.983 284.821C172.849 285.053 173.166 285.601 172.934 286.467L169.824 298.073L178.874 293.723C179.685 293.333 180.282 293.538 180.664 294.336C181.054 295.147 180.85 295.744 180.052 296.126L173.107 299.483L176.856 307.064C177.254 307.888 177.06 308.488 176.275 308.863C175.464 309.253 174.857 309.046 174.454 308.242L170.669 300.668L168.9 301.52L167.799 305.631C167.567 306.496 167.018 306.813 166.153 306.581ZM182.967 303.301C182.678 303.224 182.455 303.048 182.296 302.774C182.138 302.499 182.097 302.218 182.175 301.929C182.255 301.631 182.431 301.407 182.702 301.259C182.977 301.101 183.258 301.06 183.546 301.137L192.078 303.423C192.376 303.503 192.6 303.679 192.748 303.951C192.909 304.215 192.95 304.496 192.869 304.795C192.792 305.084 192.616 305.307 192.342 305.465C192.078 305.627 191.797 305.667 191.498 305.587L182.967 303.301ZM200.712 308.586L200.514 309.328C200.157 310.657 200.157 311.629 200.511 312.243C200.868 312.846 201.717 313.328 203.056 313.686L205.591 314.366C206.642 314.647 207.446 314.758 208.003 314.697C208.56 314.637 208.988 314.381 209.285 313.931C209.503 313.57 209.738 313.312 209.989 313.159C210.25 313.008 210.587 312.988 210.999 313.098C211.432 313.214 211.731 313.416 211.897 313.703C212.063 313.991 212.047 314.34 211.848 314.75C211.279 315.967 210.416 316.757 209.259 317.121C208.101 317.484 206.646 317.431 204.895 316.962L202.36 316.283C200.31 315.734 198.918 314.83 198.183 313.573C197.459 312.319 197.37 310.672 197.917 308.632L198.878 305.047C199.438 302.955 200.344 301.552 201.596 300.839C202.86 300.117 204.515 300.042 206.559 300.612L209.094 301.291C211.155 301.843 212.547 302.746 213.271 304C213.998 305.244 214.084 306.902 213.529 308.972L213.115 310.518C212.883 311.383 212.334 311.7 211.469 311.468L200.712 308.586ZM205.864 303.208C204.53 302.829 203.556 302.816 202.942 303.171C202.328 303.525 201.839 304.382 201.474 305.742L201.408 305.99L210.866 308.524L210.933 308.277C211.294 306.927 211.296 305.95 210.939 305.347C210.595 304.735 209.748 304.249 208.398 303.887L205.864 303.208ZM219.478 320.869C218.612 320.638 218.296 320.089 218.527 319.223L222.031 306.149C222.263 305.283 222.811 304.966 223.677 305.198C224.542 305.43 224.859 305.979 224.627 306.844L224.491 307.354C225.906 306.442 227.674 306.269 229.797 306.838L230.662 307.07C232.723 307.622 234.115 308.525 234.84 309.78C235.564 311.034 235.65 312.691 235.097 314.752L232.869 323.066C232.638 323.932 232.089 324.249 231.223 324.017C230.358 323.785 230.041 323.236 230.273 322.371L232.501 314.056C232.863 312.706 232.86 311.728 232.492 311.122C232.138 310.508 231.296 310.023 229.967 309.667L229.101 309.435C227.865 309.103 226.75 308.959 225.755 309.002C224.764 309.034 224.114 309.335 223.807 309.904L221.124 319.919C220.892 320.785 220.343 321.101 219.478 320.869ZM245.507 327.844C243.457 327.295 242.064 326.391 241.33 325.135C240.609 323.87 240.523 322.213 241.072 320.162L242.025 316.608C242.577 314.547 243.48 313.155 244.734 312.431C245.998 311.709 247.656 311.623 249.706 312.173L255.703 313.78L256.986 308.989C257.218 308.123 257.767 307.806 258.632 308.038C259.498 308.27 259.815 308.819 259.583 309.684L254.448 328.848C254.216 329.714 253.667 330.031 252.802 329.799C251.936 329.567 251.619 329.018 251.851 328.153L251.909 327.936C251.293 328.301 250.558 328.507 249.706 328.555C248.854 328.603 247.846 328.471 246.682 328.159L245.507 327.844ZM246.203 325.248L247.377 325.562C248.737 325.927 249.928 326.058 250.949 325.956C251.97 325.854 252.577 325.443 252.771 324.722L255.007 316.376L249.01 314.769C247.671 314.41 246.693 314.413 246.076 314.778C245.462 315.133 244.977 315.974 244.621 317.304L243.668 320.858C243.31 322.198 243.307 323.174 243.662 323.788C244.027 324.405 244.874 324.891 246.203 325.248Z" fill="black"/>
</svg>
