<?xml version="1.0" encoding="iso-8859-1"?>
<!-- Generator: Adobe Illustrator 28.0.0, SVG Export Plug-In . SVG Version: 6.00 Build 0)  -->
<svg version="1.1" id="&#x30EC;&#x30A4;&#x30E4;&#x30FC;_9"
	 xmlns="http://www.w3.org/2000/svg" xmlns:xlink="http://www.w3.org/1999/xlink" x="0px" y="0px" viewBox="0 0 250 345"
	 style="enable-background:new 0 0 250 345;" xml:space="preserve">
<g>
	
		<path id="&#x53F3;&#x8033;_00000105403481242812760200000014734125230472711597_" style="fill:none;stroke:#000000;stroke-width:3;stroke-linecap:round;stroke-linejoin:round;stroke-miterlimit:10;" d="
		M88.112,51.267C83.396,30.58,56.371,9.098,40.884,9.339c-6.975,15.482-5.224,58.998-1.856,65.119"/>
	
		<path id="&#x5DE6;&#x8033;_00000065073856423451225720000002014389587985099450_" style="fill:none;stroke:#000000;stroke-width:3;stroke-linecap:round;stroke-linejoin:round;stroke-miterlimit:10;" d="
		M164.077,51.267c4.716-20.687,31.741-42.169,47.228-41.928c6.975,15.482,5.224,58.998,1.856,65.119"/>
	<g id="&#x3075;&#x308F;&#x6BDB;_00000016073111930268149860000016843428187232403869_">
		<path style="fill:none;stroke:#000000;stroke-width:3;stroke-linecap:round;stroke-linejoin:round;stroke-miterlimit:10;" d="
			M42.877,101.904c0,0-7.44,13.379-18.305,19.777c7.135,1.399,11.135,3.399,11.777,5.859c-7.642,1.54-18.81,9.211-21.226,13.875
			c6.584,0.665,22.096,8.553,23.34,16.109c-6.756-0.444-11.472,2.247-14.87,4.257c5.115,2.299,13.115,8.299,15.115,12.899"/>
		<path style="fill:none;stroke:#000000;stroke-width:3;stroke-linecap:round;stroke-linejoin:round;stroke-miterlimit:10;" d="
			M207.123,101.904c0,0,7.44,13.379,18.305,19.777c-7.135,1.399-11.135,3.399-11.777,5.859c7.642,1.54,18.81,9.211,21.226,13.875
			c-6.584,0.665-22.096,8.553-23.34,16.109c6.756-0.444,11.472,2.247,14.87,4.257c-5.115,2.299-13.115,8.299-15.115,12.899"/>
		<path style="fill:none;stroke:#000000;stroke-width:3;stroke-linecap:round;stroke-linejoin:round;stroke-miterlimit:10;" d="
			M71.894,223.626c1.575,2.742,2.381,11.761,1.996,14.9c2.544-2.555,3.524-2.754,5.087-5.111
			c-0.186,4.119-1.128,19.629,2.815,29.026c5.072-10.224,14.07-21.214,19.554-24.368c0.594,2.937,0.992,4.897,3.349,6.46
			c1.155-9.416,11.448-14.007,11.448-14.007"/>
	</g>
	<g id="&#x9F3B;_00000182502125934336044260000008115536319449066631_">
		<circle cx="63.792" cy="154.58" r="9"/>
		<path style="fill:none;stroke:#000000;stroke-width:3;stroke-linecap:round;stroke-linejoin:round;stroke-miterlimit:10;" d="
			M125.292,146.08C104.5,175,53.5,169,56.5,154"/>
	</g>
	<g id="&#x53F3;&#x76EE;_00000064329153836262308420000012583570736366200485_">
		
			<circle style="fill:none;stroke:#000000;stroke-width:3;stroke-linejoin:round;stroke-miterlimit:10;" cx="88.292" cy="106.08" r="16.5"/>
		<path style="fill:none;stroke:#000000;stroke-width:3;stroke-linejoin:round;stroke-miterlimit:10;" d="M74.434,98.129
			c3.358,5.451,14.358,10.099,30.358,4.775"/>
		<circle cx="87.5" cy="108" r="4.5"/>
	</g>
	<g id="&#x5DE6;&#x76EE;_00000091697916767020160480000008436855959652021689_">
		
			<circle style="fill:none;stroke:#000000;stroke-width:3;stroke-linejoin:round;stroke-miterlimit:10;" cx="127.292" cy="106.08" r="16.5"/>
		<path style="fill:none;stroke:#000000;stroke-width:3;stroke-linejoin:round;stroke-miterlimit:10;" d="M111.792,102.58
			c3.892,5.451,21.16,3.304,32-3"/>
		<circle cx="125.5" cy="109" r="4.5"/>
	</g>
	
		<path id="&#x4F53;_00000087390684570797551430000004105562414507700399_" style="fill:none;stroke:#000000;stroke-width:3;stroke-linecap:round;stroke-linejoin:round;stroke-miterlimit:10;" d="
		M194.792,210.58c20,10,44,55,10,108c7,7,25-4,27-9"/>
	<g id="&#x8DB3;_00000033341438205183361260000014364176708794248614_">
		<path style="fill:none;stroke:#000000;stroke-width:3;stroke-linecap:round;stroke-linejoin:round;stroke-miterlimit:10;" d="
			M97.792,270.58c4,23,18,32,12.948,50.332c-8.103-1.532-12.629,6.746-10.4,10.623s10.39,6.407,15.091,1.125"/>
		<path style="fill:none;stroke:#000000;stroke-width:3;stroke-linecap:round;stroke-linejoin:round;stroke-miterlimit:10;" d="
			M112.792,270.58c4,23,18,32,12.948,50.332c-8.103-1.532-12.629,6.746-10.4,10.623s10.39,6.407,15.091,1.125"/>
	</g>
	
		<path id="&#x9996;&#x8F2A;_00000110443168706259734190000002387758772505002426_" style="fill:none;stroke:#FF0000;stroke-width:6;stroke-linejoin:round;stroke-miterlimit:10;" d="
		M90.921,197.214c2.871,15.367,30.871,8.367,39.354-1.662"/>
</g>
</svg>
