<svg width="400" height="452" viewBox="0 0 400 452" fill="none" xmlns="http://www.w3.org/2000/svg">
<rect x="51.0882" y="173.084" width="313" height="180" transform="rotate(14.0383 51.0882 173.084)" fill="#C16800" stroke="black" stroke-width="4"/>
<rect x="63.2142" y="194.67" width="279" height="144" transform="rotate(14.0383 63.2142 194.67)" fill="white" stroke="black" stroke-width="4"/>
<line x1="299.24" y1="402.765" x2="311.366" y2="424.351" stroke="black" stroke-width="4"/>
<line y1="-2" x2="24.7588" y2="-2" transform="matrix(0.842469 -0.538745 -0.538745 -0.842469 333.154 261.135)" stroke="black" stroke-width="4"/>
<line y1="-2" x2="24.7588" y2="-2" transform="matrix(0.842469 -0.538745 -0.538745 -0.842469 5.72766 346.253)" stroke="black" stroke-width="4"/>
<line x1="52.3466" y1="174.045" x2="64.4726" y2="195.631" stroke="black" stroke-width="4"/>
<line x1="295.538" y1="56.0617" x2="355.538" y2="249.062" stroke="black" stroke-width="2"/>
<line x1="288.034" y1="52.2507" x2="51.0345" y2="172.251" stroke="black" stroke-width="2"/>
<circle cx="288.583" cy="60.3585" r="7.5" fill="#FF0000" stroke="black" stroke-width="3"/>
<path d="M97.7922 288.235C96.9267 288.003 96.6099 287.454 96.8418 286.589L101.761 268.228C101.993 267.363 102.542 267.046 103.408 267.278L114.782 270.326C115.184 270.434 115.467 270.636 115.63 270.934C115.806 271.224 115.84 271.57 115.733 271.972C115.501 272.837 114.952 273.154 114.087 272.922L104.01 270.222L102.271 276.713L108.484 278.378C109.349 278.61 109.666 279.159 109.434 280.024C109.202 280.89 108.653 281.206 107.788 280.974L101.575 279.31L99.4382 287.284C99.2063 288.15 98.6576 288.467 97.7922 288.235ZM114.34 292.669C113.474 292.437 113.157 291.888 113.389 291.023L116.893 277.948C117.125 277.082 117.673 276.766 118.539 276.997C119.404 277.229 119.721 277.778 119.489 278.644L119.166 279.849C119.995 279.188 120.935 278.771 121.985 278.6C123.047 278.432 124.185 278.51 125.401 278.836C126.266 279.068 126.583 279.617 126.351 280.482C126.119 281.348 125.57 281.664 124.705 281.433C122.923 280.955 121.474 280.92 120.36 281.328C119.246 281.737 118.518 282.475 118.176 283.543L115.986 291.718C115.754 292.584 115.205 292.901 114.34 292.669ZM132.491 297.532C130.44 296.983 129.048 296.08 128.314 294.823C127.589 293.569 127.501 291.922 128.047 289.882L129.008 286.296C129.563 284.225 130.466 282.833 131.718 282.119C132.982 281.398 134.639 281.312 136.69 281.861L139.224 282.54C141.285 283.092 142.677 283.995 143.401 285.25C144.125 286.504 144.211 288.161 143.659 290.222L142.707 293.776C142.157 295.827 141.254 297.219 139.997 297.953C138.743 298.678 137.086 298.763 135.025 298.211L132.491 297.532ZM130.644 290.577C130.288 291.906 130.287 292.878 130.641 293.492C130.999 294.096 131.847 294.577 133.186 294.936L135.721 295.615C137.071 295.977 138.047 295.979 138.651 295.622C139.265 295.267 139.752 294.42 140.11 293.081L141.063 289.526C141.425 288.176 141.427 287.2 141.069 286.596C140.725 285.985 139.878 285.498 138.529 285.137L135.994 284.457C135.098 284.217 134.369 284.133 133.809 284.203C133.262 284.267 132.818 284.523 132.477 284.973C132.138 285.412 131.847 286.085 131.605 286.992L130.644 290.577ZM149.608 302.119C148.743 301.887 148.426 301.338 148.658 300.473L152.161 287.398C152.393 286.532 152.942 286.216 153.807 286.448C154.673 286.68 154.989 287.228 154.757 288.094L154.621 288.604C156.036 287.691 157.805 287.519 159.927 288.087L160.793 288.319C162.853 288.872 164.246 289.775 164.97 291.029C165.694 292.283 165.78 293.94 165.228 296.001L163 304.316C162.768 305.181 162.219 305.498 161.354 305.266C160.488 305.034 160.171 304.485 160.403 303.62L162.631 295.305C162.993 293.956 162.99 292.977 162.622 292.371C162.268 291.757 161.426 291.272 160.097 290.916L159.232 290.684C157.995 290.353 156.88 290.208 155.886 290.251C154.894 290.284 154.245 290.584 153.938 291.154L151.254 301.168C151.022 302.034 150.474 302.351 149.608 302.119ZM176.936 309.441C174.896 308.895 173.521 308.007 172.812 306.779C172.103 305.551 172.019 303.927 172.56 301.908L174.473 294.768L172.959 294.362C172.093 294.13 171.777 293.582 172.008 292.716C172.24 291.851 172.789 291.534 173.655 291.766L175.169 292.172L175.774 289.915C176.006 289.05 176.554 288.733 177.42 288.965C178.285 289.197 178.602 289.745 178.37 290.611L177.765 292.867L181.32 293.82C182.186 294.052 182.502 294.6 182.27 295.466C182.039 296.331 181.49 296.648 180.624 296.416L177.07 295.464L175.157 302.604C174.806 303.912 174.806 304.862 175.155 305.452C175.508 306.033 176.333 306.497 177.631 306.845C178.033 306.952 178.32 307.14 178.491 307.406C178.673 307.676 178.703 308.037 178.582 308.491C178.35 309.356 177.801 309.673 176.936 309.441ZM187.226 304.413C186.937 304.336 186.714 304.16 186.555 303.886C186.397 303.611 186.357 303.33 186.434 303.041C186.514 302.743 186.69 302.519 186.961 302.371C187.236 302.213 187.517 302.172 187.806 302.249L196.337 304.535C196.635 304.615 196.859 304.791 197.007 305.063C197.168 305.327 197.209 305.608 197.129 305.907C197.051 306.196 196.875 306.419 196.601 306.577C196.337 306.739 196.056 306.779 195.757 306.699L187.226 304.413ZM204.971 309.698L204.773 310.44C204.416 311.769 204.416 312.741 204.77 313.355C205.127 313.958 205.976 314.44 207.315 314.799L209.85 315.478C210.901 315.759 211.705 315.87 212.262 315.809C212.819 315.749 213.247 315.493 213.544 315.043C213.762 314.682 213.997 314.425 214.248 314.271C214.509 314.12 214.846 314.1 215.258 314.21C215.691 314.326 215.99 314.528 216.156 314.815C216.322 315.103 216.306 315.452 216.107 315.862C215.538 317.079 214.675 317.869 213.518 318.233C212.36 318.596 210.906 318.543 209.154 318.074L206.619 317.395C204.569 316.846 203.177 315.942 202.442 314.686C201.718 313.431 201.63 311.784 202.176 309.744L203.137 306.159C203.697 304.067 204.603 302.665 205.855 301.951C207.119 301.229 208.774 301.154 210.818 301.724L213.353 302.403C215.414 302.955 216.806 303.858 217.53 305.112C218.257 306.356 218.343 308.014 217.788 310.085L217.374 311.63C217.142 312.495 216.593 312.812 215.728 312.58L204.971 309.698ZM210.123 304.32C208.789 303.941 207.815 303.928 207.201 304.283C206.587 304.637 206.098 305.494 205.733 306.854L205.667 307.102L215.125 309.636L215.192 309.389C215.553 308.039 215.556 307.062 215.198 306.459C214.854 305.847 214.007 305.361 212.657 304.999L210.123 304.32ZM223.737 321.982C222.871 321.75 222.555 321.201 222.786 320.335L226.29 307.261C226.522 306.395 227.07 306.078 227.936 306.31C228.801 306.542 229.118 307.091 228.886 307.956L228.75 308.466C230.165 307.554 231.934 307.382 234.056 307.95L234.921 308.182C236.982 308.734 238.374 309.637 239.099 310.892C239.823 312.146 239.909 313.803 239.356 315.864L237.129 324.178C236.897 325.044 236.348 325.361 235.482 325.129C234.617 324.897 234.3 324.348 234.532 323.483L236.76 315.168C237.122 313.818 237.119 312.84 236.751 312.234C236.397 311.62 235.555 311.135 234.226 310.779L233.36 310.547C232.124 310.215 231.009 310.071 230.014 310.114C229.023 310.146 228.373 310.447 228.066 311.016L225.383 321.031C225.151 321.897 224.602 322.213 223.737 321.982ZM249.766 328.956C247.716 328.407 246.323 327.504 245.589 326.247C244.868 324.982 244.782 323.325 245.331 321.274L246.284 317.72C246.836 315.659 247.739 314.267 248.993 313.543C250.257 312.821 251.915 312.735 253.965 313.285L259.962 314.892L261.245 310.101C261.477 309.235 262.026 308.918 262.891 309.15C263.757 309.382 264.074 309.931 263.842 310.796L258.707 329.96C258.475 330.826 257.926 331.143 257.061 330.911C256.195 330.679 255.879 330.13 256.11 329.265L256.168 329.048C255.552 329.413 254.817 329.619 253.965 329.667C253.113 329.715 252.105 329.583 250.941 329.271L249.766 328.956ZM250.462 326.36L251.636 326.674C252.996 327.039 254.187 327.17 255.208 327.068C256.229 326.966 256.837 326.555 257.03 325.834L259.266 317.488L253.269 315.881C251.93 315.522 250.952 315.525 250.335 315.89C249.721 316.245 249.236 317.086 248.88 318.416L247.928 321.97C247.569 323.31 247.566 324.286 247.921 324.9C248.286 325.517 249.133 326.004 250.462 326.36Z" fill="black"/>
</svg>
