<svg width="400" height="452" viewBox="0 0 400 452" fill="none" xmlns="http://www.w3.org/2000/svg">
<rect x="51.0882" y="173.055" width="313" height="180" transform="rotate(14.0383 51.0882 173.055)" fill="#C16800" stroke="black" stroke-width="4"/>
<rect x="63.2142" y="194.641" width="279" height="144" transform="rotate(14.0383 63.2142 194.641)" fill="white" stroke="black" stroke-width="4"/>
<line x1="299.24" y1="402.736" x2="311.366" y2="424.322" stroke="black" stroke-width="4"/>
<line y1="-2" x2="24.7588" y2="-2" transform="matrix(0.842469 -0.538745 -0.538745 -0.842469 333.154 261.106)" stroke="black" stroke-width="4"/>
<line y1="-2" x2="24.7588" y2="-2" transform="matrix(0.842469 -0.538745 -0.538745 -0.842469 5.72769 346.224)" stroke="black" stroke-width="4"/>
<line x1="52.3467" y1="174.016" x2="64.4727" y2="195.602" stroke="black" stroke-width="4"/>
<line x1="295.538" y1="56.0325" x2="355.538" y2="249.033" stroke="black" stroke-width="2"/>
<line x1="288.034" y1="52.2215" x2="51.0345" y2="172.221" stroke="black" stroke-width="2"/>
<circle cx="288.583" cy="60.3293" r="7.5" fill="#FF0000" stroke="black" stroke-width="3"/>
<path d="M102.051 289.347C101.186 289.115 100.869 288.566 101.101 287.701L106.021 269.34C106.253 268.475 106.801 268.158 107.667 268.39L115.734 270.552C117.372 270.991 118.513 271.76 119.157 272.86C119.811 273.963 119.923 275.318 119.492 276.926L119.269 277.76C118.896 279.151 118.17 280.111 117.09 280.638C118.482 281.994 118.853 283.888 118.201 286.32L117.92 287.37C117.412 289.266 116.52 290.573 115.246 291.292C113.981 292.013 112.406 292.121 110.521 291.616L102.051 289.347ZM104.045 287.098L111.216 289.02C112.381 289.332 113.276 289.307 113.903 288.945C114.543 288.575 115.017 287.818 115.323 286.675L115.605 285.624C115.911 284.48 115.887 283.601 115.533 282.987C115.181 282.363 114.408 281.891 113.212 281.571L106.041 279.649L104.045 287.098ZM106.737 277.053L114.063 279.016C114.815 279.217 115.387 279.122 115.779 278.73C116.181 278.341 116.479 277.786 116.672 277.065L116.896 276.23C117.136 275.334 117.118 274.661 116.841 274.211C116.567 273.751 115.966 273.397 115.038 273.148L108.269 271.334L106.737 277.053ZM127.918 296.278C126.187 295.814 125.012 295.046 124.394 293.975C123.776 292.904 123.698 291.503 124.162 289.772C124.626 288.041 125.388 286.865 126.449 286.244C127.52 285.625 128.927 285.549 130.668 286.016L137.205 287.768C137.433 286.669 137.347 285.857 136.947 285.33C136.55 284.793 135.739 284.36 134.512 284.031L132.72 283.551C131.689 283.275 130.902 283.141 130.359 283.15C129.818 283.149 129.397 283.301 129.094 283.606C128.792 283.989 128.522 284.237 128.282 284.349C128.042 284.462 127.726 284.466 127.335 284.361C126.902 284.245 126.594 284.035 126.41 283.732C126.229 283.418 126.244 283.075 126.454 282.7C127.075 281.619 127.947 280.941 129.07 280.668C130.205 280.387 131.654 280.482 133.415 280.954L135.208 281.435C137.269 281.987 138.661 282.89 139.385 284.144C140.109 285.398 140.195 287.056 139.643 289.116L137.415 297.431C137.183 298.297 136.635 298.613 135.769 298.381C134.904 298.15 134.587 297.601 134.819 296.735L135.005 296.04C133.547 297.074 131.761 297.308 129.649 296.742L127.918 296.278ZM128.614 293.681L130.345 294.145C131.107 294.35 131.841 294.474 132.547 294.52C133.255 294.555 133.896 294.451 134.469 294.207C135.053 293.966 135.515 293.521 135.854 292.872L136.525 290.368L129.972 288.612C128.952 288.339 128.227 288.327 127.795 288.576C127.375 288.827 127.029 289.458 126.758 290.468C126.485 291.488 126.468 292.212 126.706 292.64C126.958 293.061 127.594 293.408 128.614 293.681ZM150.062 302.211C148.011 301.662 146.619 300.759 145.884 299.502C145.163 298.237 145.077 296.58 145.627 294.53L146.587 290.944C147.139 288.883 148.037 287.49 149.281 286.763C150.535 286.039 152.195 285.964 154.261 286.54L156.795 287.219C158.33 287.63 159.467 288.211 160.205 288.961C160.953 289.713 161.307 290.659 161.267 291.796C161.244 292.254 161.077 292.568 160.766 292.739C160.465 292.912 160.088 292.938 159.635 292.817C159.233 292.709 158.967 292.527 158.837 292.272C158.707 292.016 158.614 291.682 158.559 291.27C158.479 290.95 158.247 290.683 157.862 290.47C157.48 290.246 156.893 290.028 156.099 289.815L153.565 289.136C152.241 288.76 151.267 288.747 150.643 289.099C150.032 289.443 149.545 290.29 149.184 291.64L148.223 295.225C147.864 296.565 147.862 297.541 148.216 298.155C148.581 298.772 149.428 299.259 150.757 299.615L153.292 300.294C154.085 300.506 154.702 300.616 155.141 300.624C155.584 300.621 155.92 300.501 156.149 300.264C156.408 299.914 156.657 299.666 156.895 299.52C157.143 299.377 157.473 299.36 157.885 299.471C158.318 299.587 158.621 299.795 158.795 300.095C158.978 300.399 158.966 300.754 158.757 301.162C158.226 302.157 157.446 302.798 156.42 303.087C155.406 303.367 154.131 303.302 152.596 302.89L150.062 302.211ZM166.153 306.523C165.287 306.291 164.97 305.742 165.202 304.877L170.337 285.713C170.569 284.847 171.118 284.53 171.983 284.762C172.849 284.994 173.166 285.543 172.934 286.408L169.824 298.015L178.874 293.665C179.685 293.275 180.282 293.479 180.664 294.277C181.054 295.089 180.85 295.685 180.052 296.068L173.107 299.425L176.856 307.006C177.254 307.83 177.06 308.429 176.275 308.804C175.464 309.194 174.857 308.987 174.454 308.184L170.669 300.61L168.9 301.461L167.799 305.572C167.567 306.438 167.018 306.755 166.153 306.523ZM182.967 303.243C182.678 303.165 182.455 302.99 182.296 302.715C182.138 302.441 182.097 302.16 182.175 301.871C182.255 301.572 182.431 301.349 182.702 301.201C182.977 301.042 183.258 301.002 183.546 301.079L192.078 303.365C192.376 303.445 192.6 303.621 192.748 303.892C192.909 304.156 192.95 304.438 192.869 304.737C192.792 305.025 192.616 305.249 192.342 305.407C192.078 305.568 191.797 305.609 191.498 305.529L182.967 303.243ZM200.712 308.528L200.514 309.27C200.157 310.599 200.157 311.57 200.511 312.184C200.868 312.788 201.717 313.269 203.056 313.628L205.591 314.307C206.642 314.589 207.446 314.699 208.003 314.639C208.56 314.578 208.988 314.323 209.285 313.873C209.503 313.511 209.738 313.254 209.989 313.1C210.25 312.95 210.587 312.929 210.999 313.04C211.432 313.156 211.731 313.357 211.897 313.645C212.063 313.932 212.047 314.281 211.848 314.692C211.279 315.909 210.416 316.699 209.259 317.062C208.101 317.426 206.646 317.373 204.895 316.904L202.36 316.225C200.31 315.675 198.918 314.772 198.183 313.515C197.459 312.261 197.37 310.614 197.917 308.574L198.878 304.988C199.438 302.897 200.344 301.494 201.596 300.78C202.86 300.059 204.515 299.983 206.559 300.553L209.094 301.233C211.155 301.785 212.547 302.688 213.271 303.942C213.998 305.186 214.084 306.843 213.529 308.914L213.115 310.46C212.883 311.325 212.334 311.642 211.469 311.41L200.712 308.528ZM205.864 303.15C204.53 302.77 203.556 302.758 202.942 303.112C202.328 303.467 201.839 304.324 201.474 305.684L201.408 305.931L210.866 308.466L210.933 308.218C211.294 306.869 211.296 305.892 210.939 305.288C210.595 304.677 209.748 304.191 208.398 303.829L205.864 303.15ZM219.478 320.811C218.612 320.579 218.296 320.031 218.527 319.165L222.031 306.09C222.263 305.225 222.811 304.908 223.677 305.14C224.542 305.372 224.859 305.921 224.627 306.786L224.491 307.296C225.906 306.383 227.674 306.211 229.797 306.78L230.662 307.012C232.723 307.564 234.115 308.467 234.84 309.721C235.564 310.975 235.65 312.633 235.097 314.693L232.869 323.008C232.638 323.873 232.089 324.19 231.223 323.958C230.358 323.726 230.041 323.178 230.273 322.312L232.501 313.998C232.863 312.648 232.86 311.67 232.492 311.063C232.138 310.449 231.296 309.964 229.967 309.608L229.101 309.376C227.865 309.045 226.75 308.901 225.755 308.943C224.764 308.976 224.114 309.277 223.807 309.846L221.124 319.861C220.892 320.726 220.343 321.043 219.478 320.811ZM245.507 327.786C243.457 327.236 242.064 326.333 241.33 325.076C240.609 323.812 240.523 322.154 241.072 320.104L242.025 316.549C242.577 314.489 243.48 313.096 244.734 312.372C245.998 311.651 247.656 311.565 249.706 312.114L255.703 313.721L256.986 308.93C257.218 308.065 257.767 307.748 258.632 307.98C259.498 308.212 259.815 308.76 259.583 309.626L254.448 328.79C254.216 329.655 253.667 329.972 252.802 329.74C251.936 329.508 251.619 328.96 251.851 328.094L251.909 327.878C251.293 328.243 250.558 328.449 249.706 328.497C248.854 328.544 247.846 328.412 246.682 328.1L245.507 327.786ZM246.203 325.189L247.377 325.504C248.737 325.868 249.928 326 250.949 325.898C251.97 325.796 252.577 325.384 252.771 324.663L255.007 316.318L249.01 314.711C247.671 314.352 246.693 314.355 246.076 314.72C245.462 315.074 244.977 315.916 244.621 317.245L243.668 320.8C243.31 322.139 243.307 323.116 243.662 323.73C244.027 324.347 244.874 324.833 246.203 325.189Z" fill="black"/>
</svg>
