<svg width="400" height="452" viewBox="0 0 400 452" fill="none" xmlns="http://www.w3.org/2000/svg">
<rect x="51.0882" y="173.055" width="313" height="180" transform="rotate(14.0383 51.0882 173.055)" fill="#C16800" stroke="black" stroke-width="4"/>
<rect x="63.2142" y="194.641" width="279" height="144" transform="rotate(14.0383 63.2142 194.641)" fill="white" stroke="black" stroke-width="4"/>
<line x1="299.24" y1="402.736" x2="311.366" y2="424.322" stroke="black" stroke-width="4"/>
<line y1="-2" x2="24.7588" y2="-2" transform="matrix(0.842469 -0.538745 -0.538745 -0.842469 333.154 261.106)" stroke="black" stroke-width="4"/>
<line y1="-2" x2="24.7588" y2="-2" transform="matrix(0.842469 -0.538745 -0.538745 -0.842469 5.72769 346.224)" stroke="black" stroke-width="4"/>
<line x1="52.3467" y1="174.016" x2="64.4727" y2="195.602" stroke="black" stroke-width="4"/>
<line x1="295.538" y1="56.0325" x2="355.538" y2="249.033" stroke="black" stroke-width="2"/>
<line x1="288.034" y1="52.2215" x2="51.0345" y2="172.221" stroke="black" stroke-width="2"/>
<circle cx="288.583" cy="60.3293" r="7.5" fill="#FF0000" stroke="black" stroke-width="3"/>
<path d="M113.344 292.372C112.478 292.141 112.161 291.592 112.393 290.726L117.313 272.366C117.545 271.501 118.094 271.184 118.959 271.416C119.526 271.568 119.925 271.973 120.157 272.631L124.512 285.559L123.93 285.502L134.252 276.408C134.751 275.945 135.351 275.808 136.052 275.996C136.753 276.184 136.987 276.71 136.755 277.576L131.835 295.936C131.604 296.801 131.055 297.118 130.189 296.886C129.324 296.654 129.007 296.106 129.239 295.24L133.463 279.476L134.192 279.97L125.142 287.782C124.612 288.236 124.012 288.373 123.342 288.194C122.878 288.07 122.53 287.678 122.298 287.02L118.366 275.729L119.081 276.153L114.99 291.422C114.758 292.288 114.209 292.604 113.344 292.372ZM144.282 300.662C142.551 300.198 141.376 299.431 140.757 298.36C140.139 297.288 140.062 295.887 140.525 294.156C140.989 292.425 141.752 291.249 142.812 290.628C143.884 290.01 145.29 289.934 147.031 290.4L153.569 292.152C153.797 291.054 153.711 290.241 153.311 289.714C152.914 289.177 152.102 288.744 150.876 288.416L149.083 287.935C148.053 287.659 147.266 287.526 146.722 287.535C146.182 287.533 145.76 287.685 145.457 287.991C145.156 288.374 144.885 288.622 144.645 288.734C144.405 288.846 144.09 288.85 143.698 288.745C143.265 288.629 142.957 288.42 142.773 288.116C142.592 287.803 142.607 287.459 142.818 287.085C143.439 286.003 144.311 285.326 145.433 285.052C146.568 284.771 148.017 284.867 149.779 285.339L151.572 285.819C153.632 286.371 155.025 287.275 155.749 288.529C156.473 289.783 156.559 291.44 156.007 293.501L153.779 301.816C153.547 302.681 152.998 302.998 152.133 302.766C151.267 302.534 150.95 301.985 151.182 301.12L151.369 300.424C149.91 301.458 148.125 301.692 146.012 301.126L144.282 300.662ZM144.977 298.066L146.708 298.53C147.471 298.734 148.205 298.859 148.91 298.904C149.619 298.94 150.259 298.835 150.833 298.591C151.416 298.35 151.878 297.905 152.217 297.256L152.888 294.752L146.336 292.997C145.315 292.723 144.59 292.711 144.159 292.96C143.738 293.212 143.392 293.842 143.122 294.852C142.848 295.872 142.831 296.596 143.07 297.025C143.321 297.445 143.957 297.793 144.977 298.066ZM162.407 305.519C161.541 305.287 161.224 304.738 161.456 303.873L164.96 290.798C165.192 289.933 165.74 289.616 166.606 289.848C167.471 290.08 167.788 290.628 167.556 291.494L167.233 292.699C168.062 292.038 169.002 291.622 170.052 291.45C171.113 291.282 172.252 291.361 173.468 291.686C174.333 291.918 174.65 292.467 174.418 293.332C174.186 294.198 173.637 294.515 172.772 294.283C170.989 293.805 169.541 293.77 168.427 294.179C167.313 294.587 166.585 295.325 166.243 296.393L164.053 304.569C163.821 305.434 163.272 305.751 162.407 305.519ZM177.143 309.467C176.278 309.236 175.961 308.687 176.193 307.821L181.328 288.657C181.56 287.792 182.108 287.475 182.974 287.707C183.839 287.939 184.156 288.488 183.924 289.353L180.814 300.96L189.864 296.61C190.676 296.22 191.272 296.424 191.655 297.222C192.045 298.033 191.841 298.63 191.043 299.013L184.097 302.369L187.847 309.95C188.244 310.775 188.051 311.374 187.265 311.749C186.454 312.139 185.847 311.932 185.444 311.129L181.659 303.555L179.891 304.406L178.789 308.517C178.557 309.383 178.009 309.699 177.143 309.467ZM211.121 318.572C208.761 317.94 207.166 316.91 206.333 315.483C205.514 314.049 205.42 312.152 206.052 309.793L209.465 297.058C209.581 296.625 209.776 296.33 210.05 296.171C210.324 296.013 210.678 295.992 211.111 296.108C211.543 296.224 211.839 296.419 211.997 296.693C212.156 296.968 212.177 297.321 212.061 297.754L208.649 310.489C208.353 311.591 208.25 312.491 208.339 313.188C208.439 313.889 208.767 314.457 209.324 314.893C209.883 315.319 210.714 315.68 211.817 315.975L215.526 316.969C216.628 317.265 217.528 317.368 218.226 317.279C218.926 317.179 219.489 316.85 219.915 316.29C220.351 315.733 220.717 314.904 221.013 313.801L224.425 301.067C224.541 300.634 224.736 300.338 225.01 300.18C225.285 300.022 225.638 300 226.071 300.116C226.504 300.232 226.799 300.427 226.958 300.702C227.116 300.976 227.137 301.33 227.021 301.762L223.609 314.497C222.977 316.857 221.947 318.453 220.521 319.285C219.097 320.107 217.2 320.201 214.83 319.566L211.121 318.572ZM229.204 330.043C228.339 329.811 228.022 329.262 228.254 328.397L233.414 309.14C233.646 308.275 234.194 307.958 235.06 308.19C235.925 308.422 236.242 308.97 236.01 309.836L235.906 310.222C236.612 309.815 237.409 309.581 238.297 309.521C239.199 309.454 240.16 309.556 241.18 309.83L242.354 310.144C244.415 310.697 245.807 311.6 246.531 312.854C247.255 314.108 247.341 315.765 246.789 317.826L245.837 321.381C245.287 323.431 244.384 324.823 243.127 325.558C241.873 326.282 240.216 326.368 238.155 325.816L232.159 324.209L230.85 329.093C230.618 329.958 230.07 330.275 229.204 330.043ZM232.854 321.612L238.851 323.219C240.201 323.581 241.177 323.583 241.781 323.226C242.395 322.871 242.882 322.024 243.24 320.685L244.193 317.13C244.555 315.781 244.557 314.804 244.199 314.2C243.855 313.589 243.008 313.103 241.659 312.741L240.484 312.426C239.196 312.081 238.042 311.937 237.022 311.995C236.001 312.053 235.375 312.41 235.145 313.066L232.854 321.612Z" fill="black"/>
</svg>
