<svg width="201" height="101" viewBox="0 0 201 101" fill="none" xmlns="http://www.w3.org/2000/svg">
<path d="M150.83 36.8784L143.33 24.0292H120.83L150.83 75.4259L180.83 24.0292H158.33L150.83 36.8784Z" fill="#81C784"/>
<path d="M158.33 24.0292L150.83 36.8784L143.33 24.0292H132.497L150.83 55.4383L169.163 24.0292H158.33Z" fill="#455A64"/>
<path d="M20.83 80.0292V20.0292H80.83V80.0292H20.83Z" fill="#FFD600"/>
<path d="M60.06 64.9408C61.2133 66.8142 62.4666 68.6092 65.1216 68.6092C67.3516 68.6092 68.5216 67.5008 68.5216 65.9675C68.5216 64.1325 67.3116 63.4808 64.8583 62.4125L63.5133 61.8392C59.6316 60.1925 57.05 58.1292 57.05 53.7708C57.05 49.7542 60.125 46.6975 64.93 46.6975C68.3516 46.6975 70.8099 47.8825 72.5833 50.9858L68.3933 53.6642C67.4716 52.0175 66.475 51.3692 64.93 51.3692C63.3533 51.3692 62.355 52.3642 62.355 53.6642C62.355 55.2708 63.355 55.9208 65.6633 56.9158L67.0083 57.4892C71.5833 59.4375 74.1633 61.4275 74.1633 65.9008C74.1633 70.7208 70.3566 73.3625 65.2466 73.3625C60.2483 73.3625 57.41 70.8542 55.83 67.7492L60.06 64.9408ZM40.75 65.0775C41.5933 66.5875 42.875 67.7492 44.7183 67.7492C46.4816 67.7492 47.4966 67.0525 47.4966 64.3442V46.6958H53.0516V65.1975C53.0516 70.8092 49.7966 73.3625 45.0433 73.3625C40.7483 73.3625 37.6483 70.4525 36.385 67.7492L40.75 65.0775Z" fill="#000001"/>
</svg>
