<svg width="150" height="117" viewBox="0 0 150 117" fill="none" xmlns="http://www.w3.org/2000/svg">
<rect x="0.124939" y="44.9438" width="52" height="143" transform="rotate(-59.8038 0.124939 44.9438)" fill="black"/>
<circle cx="20.1486" cy="43.3402" r="6.5" transform="rotate(-59.8038 20.1486 43.3402)" fill="#FF0000"/>
<circle cx="89.3001" cy="69.6477" r="10" transform="rotate(-59.8038 89.3001 69.6477)" fill="black" stroke="#D9D9D9" stroke-width="5"/>
<rect x="37.1906" y="60.7778" width="11.6038" height="5" transform="rotate(-59.8038 37.1906 60.7778)" fill="#D9D9D9"/>
<rect x="44.9693" y="65.3047" width="11.6038" height="5" transform="rotate(-59.8038 44.9693 65.3047)" fill="#D9D9D9"/>
<rect x="52.7481" y="69.8311" width="11.6038" height="5" transform="rotate(-59.8038 52.7481 69.8311)" fill="#D9D9D9"/>
<rect x="44.5832" y="48.0742" width="11.6038" height="5" transform="rotate(-59.8038 44.5832 48.0742)" fill="#D9D9D9"/>
<rect x="52.3619" y="52.6006" width="11.6038" height="5" transform="rotate(-59.8038 52.3619 52.6006)" fill="#D9D9D9"/>
<rect x="60.1407" y="57.1274" width="11.6038" height="5" transform="rotate(-59.8038 60.1407 57.1274)" fill="#D9D9D9"/>
<rect x="51.9758" y="35.3706" width="11.6038" height="5" transform="rotate(-59.8038 51.9758 35.3706)" fill="#D9D9D9"/>
<rect x="59.7545" y="39.897" width="11.6038" height="5" transform="rotate(-59.8038 59.7545 39.897)" fill="#D9D9D9"/>
<rect x="67.5333" y="44.4238" width="11.6038" height="5" transform="rotate(-59.8038 67.5333 44.4238)" fill="#D9D9D9"/>
<rect x="102.014" y="98.5" width="11.6038" height="5" transform="rotate(-59.8038 102.014 98.5)" fill="#FFF500"/>
<rect x="109.406" y="85.7964" width="11.6038" height="5" transform="rotate(-59.8038 109.406 85.7964)" fill="#0057D9"/>
<rect x="116.799" y="73.0928" width="11.6038" height="5" transform="rotate(-59.8038 116.799 73.0928)" fill="#1ED900"/>
</svg>
